<mxfile host="Electron" agent="Mozilla/5.0 (Windows NT 10.0; Win64; x64) AppleWebKit/537.36 (KHTML, like Gecko) draw.io/26.2.2 Chrome/134.0.6998.178 Electron/35.1.2 Safari/537.36" version="26.2.2" pages="2">
  <diagram name="Страница — 1" id="3aJNMGV2QOkLQaEdiq9P">
    <mxGraphModel dx="1953" dy="1918" grid="1" gridSize="10" guides="1" tooltips="1" connect="1" arrows="1" fold="1" page="1" pageScale="1" pageWidth="827" pageHeight="1169" math="0" shadow="0">
      <root>
        <mxCell id="0" />
        <mxCell id="1" parent="0" />
        <mxCell id="vv894PBNichpZUILOOZp-1" value="&lt;font style=&quot;font-size: 18px;&quot;&gt;Элементы для построения&amp;nbsp;&lt;span style=&quot;caret-color: rgb(0, 0, 0); text-align: start; text-size-adjust: auto;&quot; data-reactroot=&quot;&quot; class=&quot;notion-enable-hover&quot; data-token-index=&quot;0&quot;&gt;контекстной модели потоков данных&lt;/span&gt;&lt;/font&gt;" style="rounded=1;whiteSpace=wrap;html=1;verticalAlign=top;" parent="1" vertex="1">
          <mxGeometry x="10" y="-1120" width="470" height="260" as="geometry" />
        </mxCell>
        <mxCell id="vv894PBNichpZUILOOZp-2" value="Врач" style="html=1;dashed=0;whitespace=wrap;" parent="1" vertex="1">
          <mxGeometry x="645" y="-533" width="100" height="50" as="geometry" />
        </mxCell>
        <mxCell id="vv894PBNichpZUILOOZp-3" value="Лаборатория" style="html=1;dashed=0;whitespace=wrap;" parent="1" vertex="1">
          <mxGeometry x="30" y="-672" width="100" height="50" as="geometry" />
        </mxCell>
        <mxCell id="vv894PBNichpZUILOOZp-4" value="Пациент" style="html=1;dashed=0;whitespace=wrap;" parent="1" vertex="1">
          <mxGeometry x="660" y="-690" width="100" height="50" as="geometry" />
        </mxCell>
        <mxCell id="vv894PBNichpZUILOOZp-5" value="&lt;h1&gt;&lt;font style=&quot;font-size: 40px;&quot;&gt;Задание&lt;/font&gt;&lt;/h1&gt;&lt;font style=&quot;font-size: 20px;&quot;&gt;Составьте контекстную модель потоков данных из представленных элементов&lt;br&gt;&lt;/font&gt;&lt;p style=&quot;font-size: 20px;&quot;&gt;&lt;font style=&quot;font-size: 20px;&quot;&gt;Как выполнить задание:&lt;/font&gt;&lt;/p&gt;&lt;p style=&quot;font-size: 20px;&quot;&gt;&lt;font style=&quot;font-size: 20px;&quot;&gt;1. Просмотрите MVP, которое вы составили, для изменений которые будут производиться в рамках этих доработок вам необходимо составить контекстную модель потоков данных.&amp;nbsp;&lt;/font&gt;&lt;/p&gt;&lt;p style=&quot;font-size: 20px;&quot;&gt;2. Просмотрите доступные элементы (процесс и внешние сущности) для составления модели.&lt;span style=&quot;background-color: initial;&quot;&gt;&amp;nbsp;Корректно расставьте и соедините элементы потоками данных и подпишите получившиеся потоки.&lt;/span&gt;&lt;/p&gt;&lt;p style=&quot;font-size: 20px;&quot;&gt;&lt;font style=&quot;font-size: 20px;&quot;&gt;3. Если вам не хватает информации в задании, то вы можете ее самостоятельно добавить в виде допущения&lt;/font&gt;&lt;/p&gt;&lt;p style=&quot;font-size: 20px;&quot;&gt;&lt;i&gt;Помните, что вы всегда можете оставить дополнительную информацию со своими размышлениями ревьюеру в виде пометок. Просто возьмите одну из карточек ниже.&amp;nbsp;&lt;/i&gt;&lt;/p&gt;&lt;p style=&quot;font-size: 20px;&quot;&gt;&lt;font style=&quot;font-size: 20px;&quot;&gt;4. Когда модель потоков данных будет готова, переходите к вкладке №2 для составления логических моделей потоков данных 1 уровня.&lt;/font&gt;&lt;/p&gt;" style="text;html=1;strokeColor=#82b366;fillColor=#d5e8d4;spacing=5;spacingTop=-20;whiteSpace=wrap;overflow=hidden;rounded=0;fontSize=16;" parent="1" vertex="1">
          <mxGeometry x="-770" y="-1120" width="740" height="610" as="geometry" />
        </mxCell>
        <mxCell id="vv894PBNichpZUILOOZp-6" value="&lt;h1 style=&quot;font-size: 20px;&quot;&gt;&lt;font style=&quot;font-size: 20px;&quot;&gt;Заметка для ревьюера&lt;/font&gt;&lt;/h1&gt;&lt;p style=&quot;font-size: 20px;&quot;&gt;&lt;font style=&quot;font-size: 20px;&quot;&gt;Текст заметки&lt;/font&gt;&lt;/p&gt;" style="text;html=1;strokeColor=#d6b656;fillColor=#fff2cc;spacing=5;spacingTop=-20;whiteSpace=wrap;overflow=hidden;rounded=0;fontSize=20;" parent="1" vertex="1">
          <mxGeometry x="-770" y="-450" width="370" height="170" as="geometry" />
        </mxCell>
        <mxCell id="vv894PBNichpZUILOOZp-7" value="&lt;h1 style=&quot;font-size: 20px;&quot;&gt;&lt;font style=&quot;font-size: 20px;&quot;&gt;Заметка для ревьюера&lt;/font&gt;&lt;/h1&gt;&lt;p style=&quot;font-size: 20px;&quot;&gt;&lt;font style=&quot;font-size: 20px;&quot;&gt;Текст заметки&lt;/font&gt;&lt;/p&gt;" style="text;html=1;strokeColor=#d6b656;fillColor=#fff2cc;spacing=5;spacingTop=-20;whiteSpace=wrap;overflow=hidden;rounded=0;fontSize=20;" parent="1" vertex="1">
          <mxGeometry x="-760" y="-440" width="370" height="170" as="geometry" />
        </mxCell>
        <mxCell id="vv894PBNichpZUILOOZp-8" value="&lt;h1 style=&quot;font-size: 20px;&quot;&gt;&lt;font style=&quot;font-size: 20px;&quot;&gt;Заметка для ревьюера&lt;/font&gt;&lt;/h1&gt;&lt;p style=&quot;font-size: 20px;&quot;&gt;&lt;font style=&quot;font-size: 20px;&quot;&gt;Текст заметки&lt;/font&gt;&lt;/p&gt;" style="text;html=1;strokeColor=#d6b656;fillColor=#fff2cc;spacing=5;spacingTop=-20;whiteSpace=wrap;overflow=hidden;rounded=0;fontSize=20;" parent="1" vertex="1">
          <mxGeometry x="-750" y="-430" width="370" height="170" as="geometry" />
        </mxCell>
        <mxCell id="vv894PBNichpZUILOOZp-9" value="&lt;h1 style=&quot;font-size: 20px;&quot;&gt;&lt;font style=&quot;font-size: 20px;&quot;&gt;Заметка для ревьюера&lt;/font&gt;&lt;/h1&gt;&lt;p style=&quot;font-size: 20px;&quot;&gt;&lt;font style=&quot;font-size: 20px;&quot;&gt;Текст заметки&lt;/font&gt;&lt;/p&gt;" style="text;html=1;strokeColor=#d6b656;fillColor=#fff2cc;spacing=5;spacingTop=-20;whiteSpace=wrap;overflow=hidden;rounded=0;fontSize=20;" parent="1" vertex="1">
          <mxGeometry x="-740" y="-420" width="370" height="170" as="geometry" />
        </mxCell>
        <mxCell id="vv894PBNichpZUILOOZp-11" value="0" style="swimlane;childLayout=stackLayout;horizontal=1;startSize=30;horizontalStack=0;rounded=1;fontSize=14;fontStyle=0;strokeWidth=1;resizeParent=0;resizeLast=1;shadow=0;dashed=0;align=center;fillColor=#FFFFFF;" parent="1" vertex="1">
          <mxGeometry x="320" y="-710" width="150" height="110" as="geometry" />
        </mxCell>
        <mxCell id="vv894PBNichpZUILOOZp-12" value="Приложение &quot;Вита&quot;" style="align=center;strokeColor=none;fillColor=none;spacingLeft=4;fontSize=12;verticalAlign=middle;resizable=0;rotatable=0;part=1;" parent="vv894PBNichpZUILOOZp-11" vertex="1">
          <mxGeometry y="30" width="150" height="80" as="geometry" />
        </mxCell>
        <mxCell id="pQCTz-ePTRzCms2hHHf9-6" value="" style="endArrow=classic;html=1;rounded=0;exitX=0.851;exitY=-0.006;exitDx=0;exitDy=0;exitPerimeter=0;entryX=0.31;entryY=0.026;entryDx=0;entryDy=0;entryPerimeter=0;" parent="1" source="vv894PBNichpZUILOOZp-11" target="vv894PBNichpZUILOOZp-4" edge="1">
          <mxGeometry width="50" height="50" relative="1" as="geometry">
            <mxPoint x="470" y="-716.25" as="sourcePoint" />
            <mxPoint x="690" y="-720" as="targetPoint" />
            <Array as="points">
              <mxPoint x="448" y="-720" />
              <mxPoint x="690" y="-720" />
            </Array>
          </mxGeometry>
        </mxCell>
        <mxCell id="pQCTz-ePTRzCms2hHHf9-7" value="&lt;font style=&quot;font-size: 10px;&quot;&gt;Направление на обследование&lt;/font&gt;" style="text;html=1;align=center;verticalAlign=middle;resizable=0;points=[];autosize=1;strokeColor=none;fillColor=none;rotation=0;" parent="1" vertex="1">
          <mxGeometry x="475" y="-740" width="170" height="30" as="geometry" />
        </mxCell>
        <mxCell id="pQCTz-ePTRzCms2hHHf9-13" value="" style="endArrow=classic;html=1;rounded=0;entryX=-0.005;entryY=0.601;entryDx=0;entryDy=0;entryPerimeter=0;" parent="1" edge="1">
          <mxGeometry width="50" height="50" relative="1" as="geometry">
            <mxPoint x="470" y="-680" as="sourcePoint" />
            <mxPoint x="659.5000000000002" y="-679.95" as="targetPoint" />
          </mxGeometry>
        </mxCell>
        <mxCell id="pQCTz-ePTRzCms2hHHf9-12" value="&lt;font style=&quot;font-size: 10px;&quot;&gt;Расписание процедурного кабинета&lt;/font&gt;" style="text;html=1;align=center;verticalAlign=middle;resizable=0;points=[];autosize=1;strokeColor=none;fillColor=none;rotation=0;" parent="1" vertex="1">
          <mxGeometry x="465" y="-704" width="190" height="30" as="geometry" />
        </mxCell>
        <mxCell id="pQCTz-ePTRzCms2hHHf9-17" value="" style="endArrow=classic;html=1;rounded=0;exitX=0.717;exitY=-0.019;exitDx=0;exitDy=0;exitPerimeter=0;entryX=0.5;entryY=0;entryDx=0;entryDy=0;" parent="1" source="vv894PBNichpZUILOOZp-11" target="vv894PBNichpZUILOOZp-4" edge="1">
          <mxGeometry width="50" height="50" relative="1" as="geometry">
            <mxPoint x="550" y="-690" as="sourcePoint" />
            <mxPoint x="710" y="-750" as="targetPoint" />
            <Array as="points">
              <mxPoint x="428" y="-750" />
              <mxPoint x="580" y="-750" />
              <mxPoint x="710" y="-750" />
            </Array>
          </mxGeometry>
        </mxCell>
        <mxCell id="pQCTz-ePTRzCms2hHHf9-19" value="&lt;font style=&quot;font-size: 10px;&quot;&gt;Назначение на лекарства&lt;/font&gt;" style="text;html=1;align=center;verticalAlign=middle;resizable=0;points=[];autosize=1;strokeColor=none;fillColor=none;rotation=0;" parent="1" vertex="1">
          <mxGeometry x="497" y="-773" width="140" height="30" as="geometry" />
        </mxCell>
        <mxCell id="pQCTz-ePTRzCms2hHHf9-26" value="" style="endArrow=classic;html=1;rounded=0;entryX=0.5;entryY=1;entryDx=0;entryDy=0;" parent="1" target="vv894PBNichpZUILOOZp-4" edge="1">
          <mxGeometry width="50" height="50" relative="1" as="geometry">
            <mxPoint x="470" y="-620" as="sourcePoint" />
            <mxPoint x="710" y="-620" as="targetPoint" />
            <Array as="points">
              <mxPoint x="710" y="-620" />
            </Array>
          </mxGeometry>
        </mxCell>
        <mxCell id="pQCTz-ePTRzCms2hHHf9-27" value="&lt;font style=&quot;font-size: 10px;&quot;&gt;Уведомление о готовности анализов&lt;/font&gt;" style="text;html=1;align=center;verticalAlign=middle;resizable=0;points=[];autosize=1;strokeColor=none;fillColor=none;rotation=0;" parent="1" vertex="1">
          <mxGeometry x="480" y="-645" width="190" height="30" as="geometry" />
        </mxCell>
        <mxCell id="pQCTz-ePTRzCms2hHHf9-30" value="" style="endArrow=classic;html=1;rounded=0;exitX=1;exitY=0.25;exitDx=0;exitDy=0;entryX=0;entryY=0.25;entryDx=0;entryDy=0;" parent="1" source="vv894PBNichpZUILOOZp-3" target="vv894PBNichpZUILOOZp-12" edge="1">
          <mxGeometry width="50" height="50" relative="1" as="geometry">
            <mxPoint x="350" y="-730" as="sourcePoint" />
            <mxPoint x="400" y="-780" as="targetPoint" />
          </mxGeometry>
        </mxCell>
        <mxCell id="pQCTz-ePTRzCms2hHHf9-31" value="&lt;font style=&quot;font-size: 10px;&quot;&gt;Результаты анализов&lt;/font&gt;" style="text;html=1;align=center;verticalAlign=middle;resizable=0;points=[];autosize=1;strokeColor=none;fillColor=none;rotation=0;" parent="1" vertex="1">
          <mxGeometry x="160" y="-683" width="120" height="30" as="geometry" />
        </mxCell>
        <mxCell id="pQCTz-ePTRzCms2hHHf9-33" value="&lt;font style=&quot;font-size: 10px;&quot;&gt;Направление на обследование&lt;/font&gt;" style="text;html=1;align=center;verticalAlign=middle;resizable=0;points=[];autosize=1;strokeColor=none;fillColor=none;rotation=0;" parent="1" vertex="1">
          <mxGeometry x="467" y="-544" width="170" height="30" as="geometry" />
        </mxCell>
        <mxCell id="pQCTz-ePTRzCms2hHHf9-36" value="&lt;font style=&quot;font-size: 10px;&quot;&gt;Назначение на лекарства&lt;/font&gt;" style="text;html=1;align=center;verticalAlign=middle;resizable=0;points=[];autosize=1;strokeColor=none;fillColor=none;rotation=0;" parent="1" vertex="1">
          <mxGeometry x="486" y="-520" width="140" height="30" as="geometry" />
        </mxCell>
        <mxCell id="pQCTz-ePTRzCms2hHHf9-38" value="" style="endArrow=classic;html=1;rounded=0;exitX=0;exitY=0.25;exitDx=0;exitDy=0;entryX=0.75;entryY=1;entryDx=0;entryDy=0;" parent="1" source="vv894PBNichpZUILOOZp-2" target="vv894PBNichpZUILOOZp-12" edge="1">
          <mxGeometry width="50" height="50" relative="1" as="geometry">
            <mxPoint x="300" y="-600" as="sourcePoint" />
            <mxPoint x="350" y="-650" as="targetPoint" />
            <Array as="points">
              <mxPoint x="433" y="-520" />
            </Array>
          </mxGeometry>
        </mxCell>
        <mxCell id="pQCTz-ePTRzCms2hHHf9-39" value="" style="endArrow=classic;html=1;rounded=0;exitX=0;exitY=0.75;exitDx=0;exitDy=0;entryX=0.5;entryY=1;entryDx=0;entryDy=0;" parent="1" source="vv894PBNichpZUILOOZp-2" target="vv894PBNichpZUILOOZp-12" edge="1">
          <mxGeometry width="50" height="50" relative="1" as="geometry">
            <mxPoint x="300" y="-600" as="sourcePoint" />
            <mxPoint x="350" y="-650" as="targetPoint" />
            <Array as="points">
              <mxPoint x="395" y="-495" />
            </Array>
          </mxGeometry>
        </mxCell>
        <mxCell id="i9snGtTQ_E9iVs6-0lTG-3" value="" style="endArrow=classic;html=1;rounded=0;exitX=1;exitY=0.25;exitDx=0;exitDy=0;entryX=0;entryY=0.25;entryDx=0;entryDy=0;" parent="1" edge="1">
          <mxGeometry width="50" height="50" relative="1" as="geometry">
            <mxPoint x="130" y="-629.71" as="sourcePoint" />
            <mxPoint x="320" y="-630.71" as="targetPoint" />
          </mxGeometry>
        </mxCell>
        <mxCell id="i9snGtTQ_E9iVs6-0lTG-4" value="&lt;font style=&quot;font-size: 10px;&quot;&gt;Уведомление о готовности&lt;/font&gt;&lt;div&gt;&lt;font style=&quot;font-size: 10px;&quot;&gt;&amp;nbsp;анализов&lt;/font&gt;&lt;/div&gt;" style="text;html=1;align=center;verticalAlign=middle;resizable=0;points=[];autosize=1;strokeColor=none;fillColor=none;rotation=0;" parent="1" vertex="1">
          <mxGeometry x="139.5" y="-650" width="150" height="40" as="geometry" />
        </mxCell>
        <mxCell id="2XYrw3TtgJwYkSS0v56T-1" value="" style="endArrow=classic;html=1;rounded=0;exitX=1.008;exitY=0.348;exitDx=0;exitDy=0;exitPerimeter=0;" parent="1" source="vv894PBNichpZUILOOZp-12" edge="1">
          <mxGeometry width="50" height="50" relative="1" as="geometry">
            <mxPoint x="380" y="-650" as="sourcePoint" />
            <mxPoint x="660" y="-652" as="targetPoint" />
          </mxGeometry>
        </mxCell>
        <mxCell id="2XYrw3TtgJwYkSS0v56T-2" value="&lt;font style=&quot;font-size: 10px;&quot;&gt;Результаты анализов&lt;/font&gt;" style="text;html=1;align=center;verticalAlign=middle;resizable=0;points=[];autosize=1;strokeColor=none;fillColor=none;rotation=0;" parent="1" vertex="1">
          <mxGeometry x="503" y="-673" width="120" height="30" as="geometry" />
        </mxCell>
      </root>
    </mxGraphModel>
  </diagram>
  <diagram id="0WqGyPYH-X41aXQcpuvK" name="Страница — 2">
    <mxGraphModel dx="2797" dy="3648" grid="1" gridSize="10" guides="1" tooltips="1" connect="1" arrows="1" fold="1" page="1" pageScale="1" pageWidth="827" pageHeight="1169" math="0" shadow="0">
      <root>
        <mxCell id="0" />
        <mxCell id="1" parent="0" />
        <mxCell id="hOnwafoxqA8oh55YI8sh-34" value="" style="endArrow=none;dashed=1;html=1;rounded=0;strokeColor=#0000CC;" parent="1" edge="1">
          <mxGeometry width="50" height="50" relative="1" as="geometry">
            <mxPoint x="123" y="-2160" as="sourcePoint" />
            <mxPoint x="123" y="-2310" as="targetPoint" />
          </mxGeometry>
        </mxCell>
        <mxCell id="hOnwafoxqA8oh55YI8sh-36" value="" style="endArrow=none;dashed=1;html=1;rounded=0;strokeColor=#0000CC;" parent="1" edge="1">
          <mxGeometry width="50" height="50" relative="1" as="geometry">
            <mxPoint x="283" y="-2160" as="sourcePoint" />
            <mxPoint x="283" y="-2310" as="targetPoint" />
          </mxGeometry>
        </mxCell>
        <mxCell id="b9GngQuxRC8hkcekwZqV-1" value="&lt;font style=&quot;font-size: 20px;&quot;&gt;Элементы для построения л&lt;span style=&quot;caret-color: rgb(0, 0, 0); text-align: start; text-size-adjust: auto;&quot; data-reactroot=&quot;&quot; class=&quot;notion-enable-hover&quot; data-token-index=&quot;0&quot;&gt;огических моделей потоков данных уровня 1&lt;/span&gt;&lt;/font&gt;" style="rounded=1;whiteSpace=wrap;html=1;verticalAlign=top;" parent="1" vertex="1">
          <mxGeometry x="26" y="-2300" width="800" height="320" as="geometry" />
        </mxCell>
        <mxCell id="b9GngQuxRC8hkcekwZqV-2" value="Пациент" style="html=1;fontSize=11;" parent="1" vertex="1">
          <mxGeometry x="56" y="-2250" width="110" height="50" as="geometry" />
        </mxCell>
        <mxCell id="b9GngQuxRC8hkcekwZqV-3" value="Врач" style="html=1;fontSize=11;" parent="1" vertex="1">
          <mxGeometry x="186" y="-2250" width="110" height="50" as="geometry" />
        </mxCell>
        <mxCell id="b9GngQuxRC8hkcekwZqV-4" value="Пациент" style="html=1;fontSize=11;" parent="1" vertex="1">
          <mxGeometry x="526" y="-2250" width="110" height="50" as="geometry" />
        </mxCell>
        <mxCell id="b9GngQuxRC8hkcekwZqV-5" value="Врач" style="html=1;fontSize=11;" parent="1" vertex="1">
          <mxGeometry x="656" y="-2250" width="110" height="50" as="geometry" />
        </mxCell>
        <mxCell id="b9GngQuxRC8hkcekwZqV-6" value="Лаборатория" style="html=1;fontSize=11;" parent="1" vertex="1">
          <mxGeometry x="116" y="-2190" width="110" height="50" as="geometry" />
        </mxCell>
        <mxCell id="b9GngQuxRC8hkcekwZqV-7" value="&lt;h1&gt;&lt;font style=&quot;font-size: 40px;&quot;&gt;Задание&lt;/font&gt;&lt;/h1&gt;&lt;font style=&quot;font-size: 20px;&quot;&gt;Составьте две логические модели потоков данных 1 уровня из представленных элементов. По одной для каждого процесса.&lt;br&gt;&lt;/font&gt;&lt;p style=&quot;font-size: 20px;&quot;&gt;&lt;font style=&quot;font-size: 20px;&quot;&gt;Как выполнить задание:&lt;/font&gt;&lt;/p&gt;&lt;span style=&quot;font-size: 20px;&quot;&gt;1. Просмотрите MVP, которое вы составили, для изменений которые будут производиться в рамках этих доработок вам необходимо составить две логические модели потоков данных.&amp;nbsp;&lt;/span&gt;&lt;p style=&quot;font-size: 20px;&quot;&gt;2. Просмотрите доступные элементы (процесс и внешние сущности) для составления модели.&lt;span style=&quot;background-color: initial;&quot;&gt;&amp;nbsp;Корректно расставьте, соедините элементы потоками данных и подпишите получившиеся потоки.&amp;nbsp;&lt;/span&gt;&lt;/p&gt;&lt;p style=&quot;font-size: 20px;&quot;&gt;3. Добавьте в модели потоков данных к каждому процессу недостающие хранилища данных.&lt;/p&gt;&lt;p style=&quot;font-size: 20px;&quot;&gt;&lt;font style=&quot;font-size: 20px;&quot;&gt;4. Если вам не хватает информации в задании, то вы можете ее самостоятельно добавить в виде допущения&lt;/font&gt;&lt;/p&gt;&lt;p style=&quot;font-size: 20px;&quot;&gt;&lt;i&gt;Помните, что вы всегда можете оставить дополнительную информацию со своими размышлениями ревьюеру в виде пометок. Просто возьмите одну из карточек ниже.&amp;nbsp;&lt;/i&gt;&lt;/p&gt;&lt;p style=&quot;font-size: 20px;&quot;&gt;&lt;font style=&quot;font-size: 20px;&quot;&gt;5. Когда модели потоков данных будут готовы сохраните получившийся файл в формате .drawio, он понадобиться вам в части &quot;Ревью&quot;&lt;/font&gt;&lt;/p&gt;" style="text;html=1;strokeColor=#82b366;fillColor=#d5e8d4;spacing=5;spacingTop=-20;whiteSpace=wrap;overflow=hidden;rounded=0;fontSize=16;" parent="1" vertex="1">
          <mxGeometry x="-790" y="-2290" width="740" height="660" as="geometry" />
        </mxCell>
        <mxCell id="b9GngQuxRC8hkcekwZqV-8" value="&lt;h1 style=&quot;font-size: 20px;&quot;&gt;&lt;font style=&quot;font-size: 20px;&quot;&gt;Заметка для ревьюера&lt;/font&gt;&lt;/h1&gt;&lt;p style=&quot;font-size: 20px;&quot;&gt;&lt;font style=&quot;font-size: 20px;&quot;&gt;Текст заметки&lt;/font&gt;&lt;/p&gt;" style="text;html=1;strokeColor=#d6b656;fillColor=#fff2cc;spacing=5;spacingTop=-20;whiteSpace=wrap;overflow=hidden;rounded=0;fontSize=20;" parent="1" vertex="1">
          <mxGeometry x="-730" y="-1583.13" width="370" height="170" as="geometry" />
        </mxCell>
        <mxCell id="b9GngQuxRC8hkcekwZqV-9" value="&lt;h1 style=&quot;font-size: 20px;&quot;&gt;&lt;font style=&quot;font-size: 20px;&quot;&gt;Заметка для ревьюера&lt;/font&gt;&lt;/h1&gt;&lt;p style=&quot;font-size: 20px;&quot;&gt;&lt;font style=&quot;font-size: 20px;&quot;&gt;Текст заметки&lt;/font&gt;&lt;/p&gt;" style="text;html=1;strokeColor=#d6b656;fillColor=#fff2cc;spacing=5;spacingTop=-20;whiteSpace=wrap;overflow=hidden;rounded=0;fontSize=20;" parent="1" vertex="1">
          <mxGeometry x="-720" y="-1573.13" width="370" height="170" as="geometry" />
        </mxCell>
        <mxCell id="b9GngQuxRC8hkcekwZqV-10" value="&lt;h1 style=&quot;font-size: 20px;&quot;&gt;&lt;font style=&quot;font-size: 20px;&quot;&gt;Заметка для ревьюера&lt;/font&gt;&lt;/h1&gt;&lt;p style=&quot;font-size: 20px;&quot;&gt;&lt;font style=&quot;font-size: 20px;&quot;&gt;Текст заметки&lt;/font&gt;&lt;/p&gt;" style="text;html=1;strokeColor=#d6b656;fillColor=#fff2cc;spacing=5;spacingTop=-20;whiteSpace=wrap;overflow=hidden;rounded=0;fontSize=20;" parent="1" vertex="1">
          <mxGeometry x="-710" y="-1563.13" width="370" height="170" as="geometry" />
        </mxCell>
        <mxCell id="b9GngQuxRC8hkcekwZqV-11" value="&lt;h1 style=&quot;font-size: 20px;&quot;&gt;&lt;font style=&quot;font-size: 20px;&quot;&gt;Заметка для ревьюера&lt;/font&gt;&lt;/h1&gt;&lt;p style=&quot;font-size: 20px;&quot;&gt;&lt;font style=&quot;font-size: 20px;&quot;&gt;Текст заметки&lt;/font&gt;&lt;/p&gt;" style="text;html=1;strokeColor=#d6b656;fillColor=#fff2cc;spacing=5;spacingTop=-20;whiteSpace=wrap;overflow=hidden;rounded=0;fontSize=20;" parent="1" vertex="1">
          <mxGeometry x="-700" y="-1553.13" width="370" height="170" as="geometry" />
        </mxCell>
        <mxCell id="b9GngQuxRC8hkcekwZqV-12" value="&lt;h1 style=&quot;font-size: 20px;&quot;&gt;&lt;font style=&quot;font-size: 20px;&quot;&gt;Заметка для ревьюера&lt;/font&gt;&lt;/h1&gt;&lt;p style=&quot;font-size: 20px;&quot;&gt;&lt;font style=&quot;font-size: 20px;&quot;&gt;Текст заметки&lt;/font&gt;&lt;/p&gt;" style="text;html=1;strokeColor=#d6b656;fillColor=#fff2cc;spacing=5;spacingTop=-20;whiteSpace=wrap;overflow=hidden;rounded=0;fontSize=20;" parent="1" vertex="1">
          <mxGeometry x="-690" y="-1543.13" width="370" height="170" as="geometry" />
        </mxCell>
        <mxCell id="b9GngQuxRC8hkcekwZqV-13" value="1" style="swimlane;childLayout=stackLayout;horizontal=1;startSize=30;horizontalStack=0;rounded=1;fontSize=14;fontStyle=0;strokeWidth=1;resizeParent=0;resizeLast=1;shadow=0;dashed=0;align=center;fillColor=#FFFFFF;" parent="1" vertex="1">
          <mxGeometry x="96" y="-2120" width="150" height="110" as="geometry" />
        </mxCell>
        <mxCell id="b9GngQuxRC8hkcekwZqV-14" value="Пройти обследование" style="align=center;strokeColor=none;fillColor=none;spacingLeft=4;fontSize=12;verticalAlign=middle;resizable=0;rotatable=0;part=1;" parent="b9GngQuxRC8hkcekwZqV-13" vertex="1">
          <mxGeometry y="30" width="150" height="80" as="geometry" />
        </mxCell>
        <mxCell id="b9GngQuxRC8hkcekwZqV-15" value="2" style="swimlane;childLayout=stackLayout;horizontal=1;startSize=30;horizontalStack=0;rounded=1;fontSize=14;fontStyle=0;strokeWidth=1;resizeParent=0;resizeLast=1;shadow=0;dashed=0;align=center;fillColor=#FFFFFF;" parent="1" vertex="1">
          <mxGeometry x="576" y="-2180" width="150" height="110" as="geometry" />
        </mxCell>
        <mxCell id="b9GngQuxRC8hkcekwZqV-16" value="Пройти&#xa;медикаментозное &#xa;лечение" style="align=center;strokeColor=none;fillColor=none;spacingLeft=4;fontSize=12;verticalAlign=middle;resizable=0;rotatable=0;part=1;" parent="b9GngQuxRC8hkcekwZqV-15" vertex="1">
          <mxGeometry y="30" width="150" height="80" as="geometry" />
        </mxCell>
        <mxCell id="b9GngQuxRC8hkcekwZqV-17" value="Пациент" style="html=1;fontSize=11;" parent="1" vertex="1">
          <mxGeometry x="406" y="-1930" width="110" height="50" as="geometry" />
        </mxCell>
        <mxCell id="b9GngQuxRC8hkcekwZqV-19" value="Пациент" style="html=1;fontSize=11;" parent="1" vertex="1">
          <mxGeometry x="913" y="-1866.87" width="110" height="50" as="geometry" />
        </mxCell>
        <mxCell id="b9GngQuxRC8hkcekwZqV-20" value="Назначение на&lt;br&gt;медикаментозное&lt;br&gt;лечение" style="edgeStyle=orthogonalEdgeStyle;rounded=0;orthogonalLoop=1;jettySize=auto;html=1;entryX=1.007;entryY=0.311;entryDx=0;entryDy=0;startArrow=none;startFill=0;entryPerimeter=0;" parent="1" source="b9GngQuxRC8hkcekwZqV-21" target="b9GngQuxRC8hkcekwZqV-29" edge="1">
          <mxGeometry relative="1" as="geometry" />
        </mxCell>
        <mxCell id="b9GngQuxRC8hkcekwZqV-21" value="Врач" style="html=1;fontSize=11;" parent="1" vertex="1">
          <mxGeometry x="1193" y="-1646.87" width="110" height="50" as="geometry" />
        </mxCell>
        <mxCell id="b9GngQuxRC8hkcekwZqV-22" value="&amp;nbsp;Результаты&lt;br&gt;анализов" style="edgeStyle=orthogonalEdgeStyle;rounded=0;orthogonalLoop=1;jettySize=auto;html=1;entryX=0.01;entryY=0.403;entryDx=0;entryDy=0;exitX=0.989;exitY=0.319;exitDx=0;exitDy=0;entryPerimeter=0;exitPerimeter=0;" parent="1" source="b9GngQuxRC8hkcekwZqV-37" target="b9GngQuxRC8hkcekwZqV-26" edge="1">
          <mxGeometry x="0.0058" relative="1" as="geometry">
            <mxPoint x="246" y="-1637" as="sourcePoint" />
            <mxPoint as="offset" />
          </mxGeometry>
        </mxCell>
        <mxCell id="b9GngQuxRC8hkcekwZqV-23" value="&lt;div&gt;&lt;span style=&quot;background-color: light-dark(#ffffff, var(--ge-dark-color, #121212)); color: light-dark(rgb(0, 0, 0), rgb(255, 255, 255));&quot;&gt;Уведомление о готовности&lt;/span&gt;&lt;/div&gt;анализов" style="edgeStyle=orthogonalEdgeStyle;rounded=0;orthogonalLoop=1;jettySize=auto;html=1;entryX=0;entryY=0.75;entryDx=0;entryDy=0;startArrow=none;startFill=0;exitX=1;exitY=0.75;exitDx=0;exitDy=0;" parent="1" source="b9GngQuxRC8hkcekwZqV-37" target="b9GngQuxRC8hkcekwZqV-26" edge="1">
          <mxGeometry x="-0.0027" relative="1" as="geometry">
            <mxPoint x="-1" as="offset" />
            <mxPoint x="246" y="-1612" as="sourcePoint" />
            <Array as="points">
              <mxPoint x="158" y="-1624.87" />
              <mxPoint x="158" y="-1609.87" />
            </Array>
          </mxGeometry>
        </mxCell>
        <mxCell id="b9GngQuxRC8hkcekwZqV-24" value="&lt;div&gt;Направление на&lt;br&gt;обследование&lt;/div&gt;" style="edgeStyle=orthogonalEdgeStyle;rounded=0;orthogonalLoop=1;jettySize=auto;html=1;entryX=0;entryY=0.5;entryDx=0;entryDy=0;exitX=0.007;exitY=0.133;exitDx=0;exitDy=0;exitPerimeter=0;" parent="1" source="b9GngQuxRC8hkcekwZqV-26" target="b9GngQuxRC8hkcekwZqV-17" edge="1">
          <mxGeometry relative="1" as="geometry">
            <Array as="points">
              <mxPoint x="336" y="-1659" />
              <mxPoint x="336" y="-1905" />
            </Array>
          </mxGeometry>
        </mxCell>
        <mxCell id="b9GngQuxRC8hkcekwZqV-25" value="1" style="swimlane;childLayout=stackLayout;horizontal=1;startSize=30;horizontalStack=0;rounded=1;fontSize=14;fontStyle=0;strokeWidth=1;resizeParent=0;resizeLast=1;shadow=0;dashed=0;align=center;fillColor=#FFFFFF;" parent="1" vertex="1">
          <mxGeometry x="386" y="-1700" width="150" height="110" as="geometry" />
        </mxCell>
        <mxCell id="b9GngQuxRC8hkcekwZqV-26" value="Пройти обследование&#xa;" style="align=center;strokeColor=none;fillColor=none;spacingLeft=4;fontSize=12;verticalAlign=middle;resizable=0;rotatable=0;part=1;" parent="b9GngQuxRC8hkcekwZqV-25" vertex="1">
          <mxGeometry y="30" width="150" height="80" as="geometry" />
        </mxCell>
        <mxCell id="b9GngQuxRC8hkcekwZqV-27" value="Назначение на&lt;br&gt;медикаментозное&lt;br&gt;лечение" style="edgeStyle=orthogonalEdgeStyle;rounded=0;orthogonalLoop=1;jettySize=auto;html=1;entryX=0.5;entryY=1;entryDx=0;entryDy=0;startArrow=none;startFill=0;" parent="1" source="b9GngQuxRC8hkcekwZqV-28" target="b9GngQuxRC8hkcekwZqV-19" edge="1">
          <mxGeometry relative="1" as="geometry" />
        </mxCell>
        <mxCell id="b9GngQuxRC8hkcekwZqV-28" value="2" style="swimlane;childLayout=stackLayout;horizontal=1;startSize=30;horizontalStack=0;rounded=1;fontSize=14;fontStyle=0;strokeWidth=1;resizeParent=0;resizeLast=1;shadow=0;dashed=0;align=center;fillColor=#FFFFFF;" parent="1" vertex="1">
          <mxGeometry x="893" y="-1676.87" width="150" height="110" as="geometry" />
        </mxCell>
        <mxCell id="b9GngQuxRC8hkcekwZqV-29" value="Пройти&#xa;медикаментозное &#xa;лечение" style="align=center;strokeColor=none;fillColor=none;spacingLeft=4;fontSize=12;verticalAlign=middle;resizable=0;rotatable=0;part=1;" parent="b9GngQuxRC8hkcekwZqV-28" vertex="1">
          <mxGeometry y="30" width="150" height="80" as="geometry" />
        </mxCell>
        <mxCell id="b9GngQuxRC8hkcekwZqV-30" value="D1&amp;nbsp; &amp;nbsp;&amp;nbsp;&lt;span style=&quot;background-color: initial; color: light-dark(rgb(0, 0, 0), rgb(255, 255, 255));&quot;&gt;Распорядок кабинета&lt;/span&gt;" style="html=1;dashed=0;whitespace=wrap;shape=mxgraph.dfd.dataStoreID;align=left;spacingLeft=3;points=[[0,0],[0.5,0],[1,0],[0,0.5],[1,0.5],[0,1],[0.5,1],[1,1]];overflow=hidden;noLabel=0;portConstraintRotation=0;snapToPoint=0;fixDash=0;container=0;dropTarget=0;collapsible=0;metaEdit=0;backgroundOutline=0;movableLabel=0;autosize=0;fixedWidth=0;resizeWidth=0;resizeHeight=0;treeFolding=0;treeMoving=0;enumerate=0;comic=0;" parent="1" vertex="1">
          <mxGeometry x="552" y="-1284.87" width="160" height="30" as="geometry" />
        </mxCell>
        <mxCell id="b9GngQuxRC8hkcekwZqV-31" value="D2&amp;nbsp; &amp;nbsp;&amp;nbsp;&lt;span style=&quot;background-color: transparent; color: light-dark(rgb(0, 0, 0), rgb(255, 255, 255));&quot;&gt;Результаты анализов&lt;/span&gt;" style="html=1;dashed=0;whitespace=wrap;shape=mxgraph.dfd.dataStoreID;align=left;spacingLeft=3;points=[[0,0],[0.5,0],[1,0],[0,0.5],[1,0.5],[0,1],[0.5,1],[1,1]];overflow=hidden;noLabel=0;portConstraintRotation=0;snapToPoint=0;fixDash=0;container=0;dropTarget=0;collapsible=0;metaEdit=0;backgroundOutline=0;movableLabel=0;autosize=0;fixedWidth=0;resizeWidth=0;resizeHeight=0;treeFolding=0;treeMoving=0;enumerate=0;comic=0;" parent="1" vertex="1">
          <mxGeometry x="193" y="-1340.87" width="160" height="30" as="geometry" />
        </mxCell>
        <mxCell id="b9GngQuxRC8hkcekwZqV-32" value="&lt;br&gt;&lt;div&gt;Данные об анализах&lt;/div&gt;" style="edgeStyle=orthogonalEdgeStyle;rounded=0;orthogonalLoop=1;jettySize=auto;html=1;entryX=0.5;entryY=0;entryDx=0;entryDy=0;startArrow=none;startFill=0;" parent="1" source="b9GngQuxRC8hkcekwZqV-26" target="b9GngQuxRC8hkcekwZqV-31" edge="1">
          <mxGeometry x="0.0253" y="-7" relative="1" as="geometry">
            <Array as="points">
              <mxPoint x="426" y="-1501.87" />
              <mxPoint x="273" y="-1501.87" />
            </Array>
            <mxPoint as="offset" />
          </mxGeometry>
        </mxCell>
        <mxCell id="b9GngQuxRC8hkcekwZqV-33" value="&lt;div&gt;Данные о пациенте&lt;/div&gt;" style="edgeStyle=orthogonalEdgeStyle;rounded=0;orthogonalLoop=1;jettySize=auto;html=1;entryX=0.5;entryY=1;entryDx=0;entryDy=0;startArrow=none;startFill=0;exitX=0.39;exitY=0;exitDx=0;exitDy=0;exitPerimeter=0;" parent="1" source="b9GngQuxRC8hkcekwZqV-34" target="b9GngQuxRC8hkcekwZqV-26" edge="1">
          <mxGeometry x="-0.6889" y="28" relative="1" as="geometry">
            <mxPoint as="offset" />
            <mxPoint x="417" y="-1331.87" as="sourcePoint" />
            <Array as="points">
              <mxPoint x="429" y="-1454.87" />
              <mxPoint x="461" y="-1454.87" />
            </Array>
          </mxGeometry>
        </mxCell>
        <mxCell id="b9GngQuxRC8hkcekwZqV-34" value="D3&amp;nbsp; &amp;nbsp; &amp;nbsp;П&lt;span style=&quot;background-color: transparent; color: light-dark(rgb(0, 0, 0), rgb(255, 255, 255));&quot;&gt;ациент&lt;/span&gt;" style="html=1;dashed=0;whitespace=wrap;shape=mxgraph.dfd.dataStoreID;align=left;spacingLeft=3;points=[[0,0],[0.5,0],[1,0],[0,0.5],[1,0.5],[0,1],[0.5,1],[1,1]];" parent="1" vertex="1">
          <mxGeometry x="390" y="-1319.87" width="100" height="30" as="geometry" />
        </mxCell>
        <mxCell id="b9GngQuxRC8hkcekwZqV-35" value="Данные о пациенте" style="edgeStyle=orthogonalEdgeStyle;rounded=0;orthogonalLoop=1;jettySize=auto;html=1;startArrow=none;startFill=0;" parent="1" source="b9GngQuxRC8hkcekwZqV-36" target="b9GngQuxRC8hkcekwZqV-29" edge="1">
          <mxGeometry x="-0.3463" y="24" relative="1" as="geometry">
            <mxPoint as="offset" />
          </mxGeometry>
        </mxCell>
        <mxCell id="b9GngQuxRC8hkcekwZqV-36" value="D3&amp;nbsp; &amp;nbsp; &amp;nbsp;Пациент" style="html=1;dashed=0;whitespace=wrap;shape=mxgraph.dfd.dataStoreID;align=left;spacingLeft=3;points=[[0,0],[0.5,0],[1,0],[0,0.5],[1,0.5],[0,1],[0.5,1],[1,1]];" parent="1" vertex="1">
          <mxGeometry x="917" y="-1466.87" width="100" height="30" as="geometry" />
        </mxCell>
        <mxCell id="b9GngQuxRC8hkcekwZqV-37" value="Лаборатория" style="html=1;fontSize=11;" parent="1" vertex="1">
          <mxGeometry x="26" y="-1662.87" width="110" height="50" as="geometry" />
        </mxCell>
        <mxCell id="b9GngQuxRC8hkcekwZqV-42" style="edgeStyle=orthogonalEdgeStyle;rounded=0;orthogonalLoop=1;jettySize=auto;html=1;exitX=0.75;exitY=1;exitDx=0;exitDy=0;entryX=0.749;entryY=0.044;entryDx=0;entryDy=0;entryPerimeter=0;" parent="1" source="b9GngQuxRC8hkcekwZqV-26" target="b9GngQuxRC8hkcekwZqV-34" edge="1">
          <mxGeometry relative="1" as="geometry">
            <Array as="points">
              <mxPoint x="482" y="-1589.87" />
              <mxPoint x="482" y="-1517.87" />
              <mxPoint x="506" y="-1517.87" />
              <mxPoint x="506" y="-1395.87" />
              <mxPoint x="465" y="-1395.87" />
            </Array>
          </mxGeometry>
        </mxCell>
        <mxCell id="b9GngQuxRC8hkcekwZqV-43" value="&lt;span style=&quot;font-size: 11px; background-color: rgb(255, 255, 255);&quot;&gt;Данные о пациенте&lt;/span&gt;" style="text;html=1;align=center;verticalAlign=middle;resizable=0;points=[];autosize=1;strokeColor=none;fillColor=none;" parent="1" vertex="1">
          <mxGeometry x="468" y="-1430.87" width="119" height="27" as="geometry" />
        </mxCell>
        <mxCell id="b9GngQuxRC8hkcekwZqV-44" style="edgeStyle=orthogonalEdgeStyle;rounded=0;orthogonalLoop=1;jettySize=auto;html=1;exitX=0.702;exitY=-0.005;exitDx=0;exitDy=0;entryX=0.408;entryY=1.007;entryDx=0;entryDy=0;entryPerimeter=0;exitPerimeter=0;" parent="1" source="b9GngQuxRC8hkcekwZqV-31" target="b9GngQuxRC8hkcekwZqV-26" edge="1">
          <mxGeometry relative="1" as="geometry">
            <Array as="points">
              <mxPoint x="305" y="-1467.87" />
              <mxPoint x="447" y="-1467.87" />
            </Array>
          </mxGeometry>
        </mxCell>
        <mxCell id="b9GngQuxRC8hkcekwZqV-45" value="&lt;span style=&quot;font-size: 11px; background-color: rgb(255, 255, 255);&quot;&gt;Данные об анализах&lt;/span&gt;" style="text;html=1;align=center;verticalAlign=middle;resizable=0;points=[];autosize=1;strokeColor=none;fillColor=none;" parent="1" vertex="1">
          <mxGeometry x="306" y="-1481.87" width="125" height="27" as="geometry" />
        </mxCell>
        <mxCell id="b9GngQuxRC8hkcekwZqV-47" style="edgeStyle=orthogonalEdgeStyle;rounded=0;orthogonalLoop=1;jettySize=auto;html=1;exitX=0.763;exitY=0.02;exitDx=0;exitDy=0;entryX=0.922;entryY=1.037;entryDx=0;entryDy=0;entryPerimeter=0;exitPerimeter=0;" parent="1" source="b9GngQuxRC8hkcekwZqV-30" target="b9GngQuxRC8hkcekwZqV-26" edge="1">
          <mxGeometry relative="1" as="geometry">
            <Array as="points">
              <mxPoint x="674" y="-1555.87" />
              <mxPoint x="524" y="-1555.87" />
            </Array>
          </mxGeometry>
        </mxCell>
        <mxCell id="b9GngQuxRC8hkcekwZqV-48" value="&lt;span style=&quot;color: rgb(0, 0, 0); font-family: Helvetica; font-size: 11px; font-style: normal; font-variant-ligatures: normal; font-variant-caps: normal; font-weight: 400; letter-spacing: normal; orphans: 2; text-align: center; text-indent: 0px; text-transform: none; widows: 2; word-spacing: 0px; -webkit-text-stroke-width: 0px; white-space: nowrap; background-color: rgb(255, 255, 255); text-decoration-thickness: initial; text-decoration-style: initial; text-decoration-color: initial; display: inline !important; float: none;&quot;&gt;Данные о распорядке кабинета&lt;/span&gt;" style="text;whiteSpace=wrap;html=1;" parent="1" vertex="1">
          <mxGeometry x="629" y="-1323.87" width="181" height="28" as="geometry" />
        </mxCell>
        <mxCell id="b9GngQuxRC8hkcekwZqV-50" style="edgeStyle=orthogonalEdgeStyle;rounded=0;orthogonalLoop=1;jettySize=auto;html=1;exitX=0.75;exitY=1;exitDx=0;exitDy=0;entryX=0.3;entryY=-0.022;entryDx=0;entryDy=0;entryPerimeter=0;" parent="1" source="b9GngQuxRC8hkcekwZqV-26" target="b9GngQuxRC8hkcekwZqV-30" edge="1">
          <mxGeometry relative="1" as="geometry">
            <Array as="points">
              <mxPoint x="508" y="-1589.87" />
              <mxPoint x="508" y="-1529.87" />
              <mxPoint x="600" y="-1529.87" />
            </Array>
          </mxGeometry>
        </mxCell>
        <mxCell id="b9GngQuxRC8hkcekwZqV-51" value="&lt;span style=&quot;color: rgb(0, 0, 0); font-family: Helvetica; font-size: 11px; font-style: normal; font-variant-ligatures: normal; font-variant-caps: normal; font-weight: 400; letter-spacing: normal; orphans: 2; text-align: center; text-indent: 0px; text-transform: none; widows: 2; word-spacing: 0px; -webkit-text-stroke-width: 0px; white-space: nowrap; background-color: rgb(255, 255, 255); text-decoration-thickness: initial; text-decoration-style: initial; text-decoration-color: initial; display: inline !important; float: none;&quot;&gt;Данные о распорядке кабинета&lt;/span&gt;" style="text;whiteSpace=wrap;html=1;" parent="1" vertex="1">
          <mxGeometry x="493" y="-1371.87" width="181" height="28" as="geometry" />
        </mxCell>
        <mxCell id="b9GngQuxRC8hkcekwZqV-52" style="edgeStyle=orthogonalEdgeStyle;rounded=0;orthogonalLoop=1;jettySize=auto;html=1;exitX=0.75;exitY=1;exitDx=0;exitDy=0;entryX=0.885;entryY=0.006;entryDx=0;entryDy=0;entryPerimeter=0;" parent="1" source="b9GngQuxRC8hkcekwZqV-29" target="b9GngQuxRC8hkcekwZqV-36" edge="1">
          <mxGeometry relative="1" as="geometry">
            <mxPoint x="1006" y="-1468.87" as="targetPoint" />
          </mxGeometry>
        </mxCell>
        <mxCell id="b9GngQuxRC8hkcekwZqV-53" value="&lt;span style=&quot;font-size: 11px; background-color: rgb(255, 255, 255);&quot;&gt;Данные о пациенте&lt;/span&gt;" style="text;html=1;align=center;verticalAlign=middle;resizable=0;points=[];autosize=1;strokeColor=none;fillColor=none;" parent="1" vertex="1">
          <mxGeometry x="970" y="-1545.87" width="119" height="27" as="geometry" />
        </mxCell>
        <mxCell id="b9GngQuxRC8hkcekwZqV-54" value="&lt;span style=&quot;color: rgb(0, 0, 0); font-family: Helvetica; font-size: 11px; font-style: normal; font-variant-ligatures: normal; font-variant-caps: normal; font-weight: 400; letter-spacing: normal; orphans: 2; text-align: center; text-indent: 0px; text-transform: none; widows: 2; word-spacing: 0px; -webkit-text-stroke-width: 0px; white-space: nowrap; background-color: rgb(255, 255, 255); text-decoration-thickness: initial; text-decoration-style: initial; text-decoration-color: initial; float: none; display: inline !important;&quot;&gt;Назначение на&lt;/span&gt;&lt;br style=&quot;forced-color-adjust: none; color: rgb(0, 0, 0); font-family: Helvetica; font-size: 11px; font-style: normal; font-variant-ligatures: normal; font-variant-caps: normal; font-weight: 400; letter-spacing: normal; orphans: 2; text-align: center; text-indent: 0px; text-transform: none; widows: 2; word-spacing: 0px; -webkit-text-stroke-width: 0px; white-space: nowrap; text-decoration-thickness: initial; text-decoration-style: initial; text-decoration-color: initial;&quot;&gt;&lt;span style=&quot;color: rgb(0, 0, 0); font-family: Helvetica; font-size: 11px; font-style: normal; font-variant-ligatures: normal; font-variant-caps: normal; font-weight: 400; letter-spacing: normal; orphans: 2; text-align: center; text-indent: 0px; text-transform: none; widows: 2; word-spacing: 0px; -webkit-text-stroke-width: 0px; white-space: nowrap; background-color: rgb(255, 255, 255); text-decoration-thickness: initial; text-decoration-style: initial; text-decoration-color: initial; float: none; display: inline !important;&quot;&gt;обследование&lt;/span&gt;" style="text;whiteSpace=wrap;html=1;" parent="1" vertex="1">
          <mxGeometry x="563" y="-1661.87" width="124" height="43" as="geometry" />
        </mxCell>
        <mxCell id="b9GngQuxRC8hkcekwZqV-59" value="" style="endArrow=classic;html=1;rounded=0;exitX=0.75;exitY=0;exitDx=0;exitDy=0;" parent="1" source="b9GngQuxRC8hkcekwZqV-25" edge="1">
          <mxGeometry width="50" height="50" relative="1" as="geometry">
            <mxPoint x="488" y="-1706.87" as="sourcePoint" />
            <mxPoint x="499" y="-1879.87" as="targetPoint" />
          </mxGeometry>
        </mxCell>
        <mxCell id="b9GngQuxRC8hkcekwZqV-60" value="&lt;span style=&quot;color: rgb(0, 0, 0); font-family: Helvetica; font-size: 11px; font-style: normal; font-variant-ligatures: normal; font-variant-caps: normal; font-weight: 400; letter-spacing: normal; orphans: 2; text-align: center; text-indent: 0px; text-transform: none; widows: 2; word-spacing: 0px; -webkit-text-stroke-width: 0px; white-space: nowrap; background-color: rgb(255, 255, 255); text-decoration-thickness: initial; text-decoration-style: initial; text-decoration-color: initial; float: none; display: inline !important;&quot;&gt;Результаты&lt;/span&gt;&lt;br style=&quot;forced-color-adjust: none; color: rgb(0, 0, 0); font-family: Helvetica; font-size: 11px; font-style: normal; font-variant-ligatures: normal; font-variant-caps: normal; font-weight: 400; letter-spacing: normal; orphans: 2; text-align: center; text-indent: 0px; text-transform: none; widows: 2; word-spacing: 0px; -webkit-text-stroke-width: 0px; white-space: nowrap; text-decoration-thickness: initial; text-decoration-style: initial; text-decoration-color: initial;&quot;&gt;&lt;span style=&quot;color: rgb(0, 0, 0); font-family: Helvetica; font-size: 11px; font-style: normal; font-variant-ligatures: normal; font-variant-caps: normal; font-weight: 400; letter-spacing: normal; orphans: 2; text-align: center; text-indent: 0px; text-transform: none; widows: 2; word-spacing: 0px; -webkit-text-stroke-width: 0px; white-space: nowrap; background-color: rgb(255, 255, 255); text-decoration-thickness: initial; text-decoration-style: initial; text-decoration-color: initial; float: none; display: inline !important;&quot;&gt;анализов&lt;/span&gt;" style="text;whiteSpace=wrap;html=1;" parent="1" vertex="1">
          <mxGeometry x="502" y="-1821.87" width="106" height="43" as="geometry" />
        </mxCell>
        <mxCell id="b9GngQuxRC8hkcekwZqV-18" value="Врач" style="html=1;fontSize=11;" parent="1" vertex="1">
          <mxGeometry x="693" y="-1662.87" width="110" height="50" as="geometry" />
        </mxCell>
        <mxCell id="rabj3xK22p53IzIU8rMV-4" value="" style="endArrow=classic;html=1;rounded=0;exitX=-0.007;exitY=0.607;exitDx=0;exitDy=0;exitPerimeter=0;entryX=0.995;entryY=0.534;entryDx=0;entryDy=0;entryPerimeter=0;" parent="1" target="b9GngQuxRC8hkcekwZqV-26" edge="1">
          <mxGeometry width="50" height="50" relative="1" as="geometry">
            <mxPoint x="692.2299999999998" y="-1627.52" as="sourcePoint" />
            <mxPoint x="536.75" y="-1628.52" as="targetPoint" />
          </mxGeometry>
        </mxCell>
        <mxCell id="Ve--QswAlU28RDbELgpC-1" value="" style="endArrow=classic;html=1;rounded=0;exitX=1;exitY=0.25;exitDx=0;exitDy=0;entryX=1;entryY=0.5;entryDx=0;entryDy=0;" parent="1" source="b9GngQuxRC8hkcekwZqV-25" target="b9GngQuxRC8hkcekwZqV-17" edge="1">
          <mxGeometry width="50" height="50" relative="1" as="geometry">
            <mxPoint x="577.38" y="-1710.37" as="sourcePoint" />
            <mxPoint x="577.38" y="-1890.37" as="targetPoint" />
            <Array as="points">
              <mxPoint x="613" y="-1672.87" />
              <mxPoint x="613" y="-1904.87" />
            </Array>
          </mxGeometry>
        </mxCell>
        <mxCell id="UGXRo_hTIfaZdkVqeV2E-1" value="&lt;font style=&quot;font-size: 10px;&quot;&gt;Расписание&amp;nbsp;&lt;/font&gt;&lt;div&gt;&lt;font style=&quot;font-size: 10px;&quot;&gt;процедурного кабинета&lt;/font&gt;&lt;/div&gt;" style="text;html=1;align=center;verticalAlign=middle;resizable=0;points=[];autosize=1;strokeColor=none;fillColor=none;rotation=0;" parent="1" vertex="1">
          <mxGeometry x="603" y="-1821.87" width="130" height="40" as="geometry" />
        </mxCell>
        <mxCell id="ZkDeeLW77mTu7W65NmaW-1" value="&lt;font style=&quot;font-size: 10px;&quot;&gt;Уведомление о&amp;nbsp;&lt;/font&gt;&lt;div&gt;&lt;font style=&quot;font-size: 10px;&quot;&gt;готовности анализов&lt;/font&gt;&lt;/div&gt;" style="text;html=1;align=center;verticalAlign=middle;resizable=0;points=[];autosize=1;strokeColor=none;fillColor=none;rotation=0;" parent="1" vertex="1">
          <mxGeometry x="343" y="-1766.87" width="120" height="40" as="geometry" />
        </mxCell>
        <mxCell id="ZkDeeLW77mTu7W65NmaW-2" value="" style="endArrow=classic;html=1;rounded=0;exitX=0.75;exitY=0;exitDx=0;exitDy=0;" parent="1" edge="1">
          <mxGeometry width="50" height="50" relative="1" as="geometry">
            <mxPoint x="453" y="-1700.87" as="sourcePoint" />
            <mxPoint x="453" y="-1880.87" as="targetPoint" />
          </mxGeometry>
        </mxCell>
      </root>
    </mxGraphModel>
  </diagram>
</mxfile>
